                              <svg
                                
                                xmlns="http://www.w3.org/2000/svg"
                                width="13.98"
                                height="14.033"
                                viewBox="0 0 13.98 14.033"
                              >
                                <g
                                  id="Group_131"
                                  data-name="Group 131"
                                  transform="translate(-219.859 -62.544)"
                                >
                                  <path
                                    id="Path_472"
                                    data-name="Path 472"
                                    d="M271.363,95.475h3.71c.626,0,.7.079.7.716,0,1.447,0,2.894,0,4.342a.459.459,0,0,1-.2.413c-.844.645-1.677,1.3-2.522,1.948a.71.71,0,0,1-.393.137q-1.291.018-2.583,0a.664.664,0,0,1-.371-.122q-1.289-.983-2.558-1.991a.523.523,0,0,1-.172-.359c-.012-1.493-.008-2.986-.007-4.479,0-.486.116-.6.594-.605Zm.637,5.474a3.893,3.893,0,0,0,.7.341,1.257,1.257,0,0,0,1.345-.694,2.636,2.636,0,0,0,.269-1.913,3.02,3.02,0,1,0-3.112,3.8c.349.016.57-.177.522-.467-.044-.264-.23-.339-.476-.359a2.2,2.2,0,0,1-1.7-3.381,2.155,2.155,0,0,1,2.948-.685.478.478,0,0,0-.623.271,1.437,1.437,0,0,0-1.921.8A2.33,2.33,0,0,0,269.8,99.7,1.44,1.44,0,0,0,272,100.949Z"
                                    transform="translate(-44.527 -31.12)"
                                  ></path>
                                  <path
                                    id="Path_473"
                                    data-name="Path 473"
                                    d="M243.053,251.784H230.261c.094-.08.151-.133.213-.181q2.254-1.754,4.512-3.5a.749.749,0,0,1,.418-.145c.86-.013,1.721-.01,2.582,0a.571.571,0,0,1,.325.1q2.348,1.812,4.686,3.636a.367.367,0,0,0,.1.038Z"
                                    transform="translate(-9.83 -175.207)"
                                  ></path>
                                  <path
                                    id="Path_474"
                                    data-name="Path 474"
                                    d="M219.859,174.433l4.671,3.633-4.671,3.633Z"
                                    transform="translate(0 -105.737)"
                                  ></path>
                                  <path
                                    id="Path_475"
                                    data-name="Path 475"
                                    d="M389.225,178.113l4.667-3.63v7.26Z"
                                    transform="translate(-160.053 -105.784)"
                                  ></path>
                                  <path
                                    id="Path_476"
                                    data-name="Path 476"
                                    d="M325.243,63.516h-2.686c.416-.344.766-.661,1.148-.931a.487.487,0,0,1,.446.032C324.512,62.877,324.843,63.18,325.243,63.516Z"
                                    transform="translate(-97.051 0)"
                                  ></path>
                                  <path
                                    id="Path_477"
                                    data-name="Path 477"
                                    d="M442.145,142.025v-2.23l1.378,1.157Z"
                                    transform="translate(-210.063 -73.003)"
                                  ></path>
                                  <path
                                    id="Path_478"
                                    data-name="Path 478"
                                    d="M228.2,139.874v2.218l-1.369-1.064Z"
                                    transform="translate(-6.59 -73.078)"
                                  ></path>
                                  <path
                                    id="Path_479"
                                    data-name="Path 479"
                                    d="M334.105,152.656a3.655,3.655,0,0,1-.262.637.469.469,0,0,1-.756.075,1.118,1.118,0,0,1-.1-1.389.55.55,0,0,1,.984.143A4.005,4.005,0,0,1,334.105,152.656Z"
                                    transform="translate(-106.725 -84.286)"
                                  ></path>
                                  <path
                                    id="Path_480"
                                    data-name="Path 480"
                                    d="M370.08,135.548a1.9,1.9,0,0,1,.681,2.51.7.7,0,0,1-.225.232c-.245.152-.407.061-.408-.227,0-.649.006-1.3,0-1.947C370.128,135.922,370.1,135.727,370.08,135.548Z"
                                    transform="translate(-141.961 -68.99)"
                                  ></path>
                                </g>
                              </svg>