<svg class="sherah-color1__fill" xmlns="http://www.w3.org/2000/svg" width="35.176" height="30.636" viewBox="0 0 35.176 30.636">
														<g id="Group_1177" data-name="Group 1177" transform="translate(-207.977 -44.521)">
														  <path id="Path_253" data-name="Path 253" d="M218.474,150.774c3.084-3.627,11.1-3.619,14.16-.016.113-.172.217-.333.324-.493a4.348,4.348,0,0,1,3.515-2.1,12.57,12.57,0,0,1,3.269.165,4.445,4.445,0,0,1,3.4,4.375c.019,2.426.01,4.853,0,7.28a2.083,2.083,0,0,1-2.259,2.276c-1.808.022-3.617.016-5.425,0-.419,0-.63.082-.767.542a2.316,2.316,0,0,1-2.413,1.657c-1.579.019-3.159.006-4.739.006q-4.224,0-8.447,0a2.493,2.493,0,0,1-2.761-1.87.806.806,0,0,0-.625-.312c-1.739-.025-3.479-.012-5.219-.015-1.79,0-2.51-.716-2.511-2.482,0-2.289,0-4.578,0-6.868a4.633,4.633,0,0,1,4.607-4.8c.343-.014.687.007,1.03-.008A4.854,4.854,0,0,1,218.474,150.774Zm7.083,11.624c2.172,0,4.345,0,6.517,0,.424,0,.705-.08.7-.594-.023-1.966.05-3.937-.055-5.9a5.977,5.977,0,0,0-4.737-5.523,15.559,15.559,0,0,0-3.272-.2,6.2,6.2,0,0,0-6.351,6.325c-.023,1.692.02,3.385-.017,5.076-.014.644.219.826.836.818C221.3,162.381,223.431,162.4,225.558,162.4Zm15.5-2.242c0-2.623.055-5.2-.025-7.779a2.373,2.373,0,0,0-2.232-2.155,14.355,14.355,0,0,0-1.85-.035,2.591,2.591,0,0,0-2.6,3.3,21.233,21.233,0,0,1,.49,5.781c0,.287,0,.575,0,.885Zm-24.813,0c.014-.264.033-.486.035-.708a22.529,22.529,0,0,1,.495-5.987,2.59,2.59,0,0,0-2.632-3.277c-.457-.015-.915-.013-1.372,0a2.581,2.581,0,0,0-2.727,2.773c-.007,2.2,0,4.392,0,6.588,0,.2.021.4.033.612Z" transform="translate(0 -89.312)"></path>
														  <path id="Path_254" data-name="Path 254" d="M298.589,44.523a5.972,5.972,0,1,1-6.069,5.89A5.967,5.967,0,0,1,298.589,44.523Zm-.1,2.068a3.9,3.9,0,1,0,3.912,3.931A3.889,3.889,0,0,0,298.486,46.591Z" transform="translate(-72.929 0)"></path>
														  <path id="Path_255" data-name="Path 255" d="M224.343,84.1a3.77,3.77,0,1,1,3.749-3.755A3.764,3.764,0,0,1,224.343,84.1Zm-.03-2.066a1.7,1.7,0,1,0-1.693-1.7A1.688,1.688,0,0,0,224.313,82.03Z" transform="translate(-10.849 -27.636)"></path>
														  <path id="Path_256" data-name="Path 256" d="M400.423,76.561a3.769,3.769,0,1,1-3.855,3.644A3.755,3.755,0,0,1,400.423,76.561Zm1.613,3.752a1.7,1.7,0,1,0-1.67,1.719A1.685,1.685,0,0,0,402.036,80.312Z" transform="translate(-162.683 -27.637)"></path>
														</g>
													</svg>