<?xml version="1.0" standalone="no"?>
<!DOCTYPE svg PUBLIC "-//W3C//DTD SVG 20010904//EN"
 "http://www.w3.org/TR/2001/REC-SVG-20010904/DTD/svg10.dtd">
<svg version="1.0" xmlns="http://www.w3.org/2000/svg"
 width="800.000000pt" height="199.000000pt" viewBox="0 0 800.000000 199.000000"
 preserveAspectRatio="xMidYMid meet">

<g transform="translate(0.000000,199.000000) scale(0.100000,-0.100000)"
fill="#fff" stroke="none">
<path d="M2015 1385 l-25 -24 0 -314 c0 -309 0 -315 23 -347 12 -18 34 -42 49
-53 l27 -20 64 65 c119 121 259 169 384 130 87 -27 139 -60 207 -132 56 -59
60 -61 84 -48 14 7 38 31 54 52 l28 39 0 314 0 314 -25 24 c-17 18 -35 25 -61
25 -31 0 -59 -18 -195 -120 -87 -66 -165 -123 -173 -126 -9 -3 -79 43 -181
120 -139 106 -172 126 -201 126 -24 0 -43 -8 -59 -25z"/>
<path d="M3412 1393 c-22 -20 -392 -618 -400 -646 -5 -19 37 -80 73 -103 24
-16 26 -14 89 49 184 187 392 189 579 7 68 -67 73 -70 96 -58 23 12 81 83 81
98 0 11 -381 624 -403 648 -25 27 -86 30 -115 5z"/>
<path d="M4087 1380 c-19 -16 -40 -43 -47 -60 -12 -28 -9 -36 69 -160 44 -72
81 -135 81 -140 0 -5 -36 -68 -81 -139 -87 -141 -88 -146 -42 -201 49 -59 57
-58 127 12 109 110 238 161 349 138 89 -18 167 -63 237 -136 61 -63 64 -65 88
-52 25 13 82 83 82 99 0 5 -36 67 -80 137 -44 71 -80 135 -80 142 0 7 36 71
80 142 44 72 80 133 80 137 0 17 -58 87 -82 99 -24 13 -27 11 -88 -52 -179
-186 -400 -186 -585 1 -35 35 -65 63 -68 63 -4 0 -22 -13 -40 -30z"/>
<path d="M5147 1380 c-19 -16 -40 -43 -46 -59 -12 -27 -8 -36 68 -160 45 -72
81 -136 81 -142 0 -6 -36 -69 -80 -140 -44 -70 -80 -132 -80 -137 0 -16 59
-91 81 -102 19 -11 27 -6 74 44 68 71 132 111 219 138 61 18 76 20 130 10 92
-18 174 -63 247 -137 35 -36 67 -65 71 -65 16 0 76 61 88 89 11 27 7 36 -69
159 -45 72 -81 136 -81 142 0 7 37 71 81 143 l81 131 -18 34 c-27 49 -104 104
-104 74 0 -4 -26 -34 -57 -66 -175 -175 -395 -172 -573 8 -36 36 -68 66 -72
66 -4 0 -23 -13 -41 -30z"/>
<path d="M3176 644 c-4 -15 -5 -28 -3 -30 9 -9 66 -22 71 -16 10 9 7 32 -5 32
-5 0 -7 -5 -4 -11 5 -7 -3 -9 -21 -7 -23 2 -28 7 -26 23 5 29 9 30 45 17 29
-10 30 -10 13 3 -32 24 -63 19 -70 -11z"/>
<path d="M3699 633 c4 -16 15 -29 24 -29 13 -2 14 -1 2 3 -8 2 -15 13 -15 23
0 10 -4 21 -9 24 -5 4 -6 -5 -2 -21z"/>
<path d="M3292 633 c-1 -12 -5 -28 -8 -36 -4 -10 4 -16 25 -19 16 -2 28 -1 25
4 -3 4 -11 8 -19 8 -8 0 -15 14 -18 33 -2 17 -5 22 -5 10z"/>
<path d="M3612 625 c-16 -34 -15 -46 2 -39 8 3 12 13 9 25 -3 10 0 19 6 19 6
0 11 -6 11 -14 0 -8 7 -16 15 -20 22 -8 18 8 -8 32 l-24 22 -11 -25z"/>
<path d="M3385 628 c-15 -46 -11 -53 30 -53 35 0 40 3 40 24 0 13 -5 26 -11
28 -7 2 -10 -6 -7 -22 5 -22 2 -25 -22 -25 -25 0 -27 3 -23 30 5 31 1 40 -7
18z"/>
<path d="M3540 633 c19 -9 10 -23 -16 -23 -14 0 -23 4 -19 10 3 6 1 10 -4 10
-12 0 -14 -20 -5 -44 6 -15 54 -23 66 -10 10 9 -7 57 -20 60 -7 1 -8 0 -2 -3z
m10 -43 c0 -5 -9 -10 -20 -10 -11 0 -20 5 -20 10 0 6 9 10 20 10 11 0 20 -4
20 -10z"/>
</g>
</svg>
