<?xml version="1.0" standalone="no"?>
<!DOCTYPE svg PUBLIC "-//W3C//DTD SVG 20010904//EN"
 "http://www.w3.org/TR/2001/REC-SVG-20010904/DTD/svg10.dtd">
<svg version="1.0" xmlns="http://www.w3.org/2000/svg"
 width="641.000000pt" height="665.000000pt" viewBox="0 0 641.000000 665.000000"
 preserveAspectRatio="xMidYMid meet">

<g transform="translate(0.000000,665.000000) scale(0.100000,-0.100000)"
fill="#000000" stroke="none">
<path d="M365 6637 c-66 -22 -101 -44 -138 -88 -70 -82 -67 -27 -67 -1092 l0
-959 37 -70 c44 -84 157 -208 237 -260 33 -21 63 -38 67 -38 4 0 29 28 56 63
287 374 697 607 1068 607 243 0 505 -96 738 -271 110 -83 265 -237 337 -336
25 -35 50 -63 56 -63 24 0 134 83 192 145 34 35 80 97 104 137 l43 73 3 954
c3 1056 5 1017 -61 1103 -40 52 -122 96 -193 104 -108 13 -112 11 -688 -430
l-528 -405 -102 78 c-595 459 -938 717 -974 733 -56 25 -136 31 -187 15z"/>
<path d="M4783 6632 c-28 -10 -67 -30 -85 -44 -24 -18 -214 -317 -653 -1029
-340 -552 -626 -1015 -634 -1028 -14 -22 -13 -28 24 -100 47 -90 192 -242 268
-281 43 -22 49 -23 57 -9 27 47 149 186 239 272 276 261 603 399 916 384 293
-14 583 -150 833 -391 93 -90 204 -217 231 -263 9 -17 13 -16 58 7 74 38 221
191 266 278 22 40 36 79 33 87 -10 28 -1249 2031 -1269 2053 -60 66 -194 96
-284 64z"/>
<path d="M455 3799 c-118 -75 -207 -173 -267 -294 l-30 -60 271 -438 270 -438
-267 -432 c-160 -259 -266 -441 -265 -455 1 -33 75 -152 135 -217 51 -56 181
-155 202 -155 6 0 25 22 43 48 47 69 162 195 246 269 164 145 383 267 572 320
91 25 115 28 265 28 141 0 177 -4 250 -24 308 -83 595 -282 811 -561 34 -44
65 -80 67 -80 3 0 34 19 69 41 103 67 227 215 264 315 11 28 -3 51 -257 464
-148 239 -268 438 -266 443 1 5 122 202 268 438 210 340 264 434 258 452 -33
111 -191 289 -310 350 l-32 16 -53 -72 c-71 -97 -256 -278 -357 -350 -155
-111 -338 -194 -514 -233 -117 -27 -299 -23 -428 9 -331 81 -614 281 -870 615
l-25 33 -50 -32z"/>
<path d="M3682 3790 c-112 -75 -269 -268 -274 -337 -1 -10 119 -213 266 -451
l267 -433 -271 -439 -271 -439 30 -58 c43 -86 116 -179 187 -237 61 -50 131
-93 137 -85 265 359 583 582 929 653 151 31 357 17 518 -35 104 -34 277 -123
380 -196 113 -82 275 -239 355 -345 31 -43 61 -78 65 -78 22 0 138 90 198 155
61 65 142 193 142 224 0 6 -119 205 -265 441 -146 236 -265 434 -265 439 0 5
118 199 262 432 143 233 263 431 265 440 10 37 -91 193 -175 271 -62 58 -162
123 -171 111 -4 -4 -30 -37 -57 -73 -174 -232 -454 -442 -709 -533 -358 -127
-738 -54 -1091 211 -110 83 -251 224 -324 325 -30 42 -58 76 -61 76 -4 1 -34
-17 -67 -39z"/>
<path d="M234 981 c-60 -28 -64 -46 -64 -328 0 -274 5 -300 63 -325 47 -19
638 -19 685 1 54 23 62 50 62 226 l0 155 -210 0 -211 0 3 -57 3 -58 128 -3
127 -3 0 -69 0 -70 -245 0 -245 0 0 210 0 210 245 0 245 0 0 -35 c0 -40 2 -41
96 -23 l64 11 0 46 c0 63 -28 107 -77 120 -23 7 -156 11 -333 11 -267 0 -299
-2 -336 -19z"/>
<path d="M1360 655 l0 -345 335 0 335 0 0 70 0 70 -255 0 -255 0 0 275 0 275
-80 0 -80 0 0 -345z"/>
<path d="M2346 990 c-77 -23 -89 -75 -84 -368 3 -239 9 -265 63 -292 25 -12
86 -15 365 -15 309 0 338 1 364 18 51 34 56 64 56 324 0 364 25 343 -420 342
-173 0 -328 -5 -344 -9z m604 -330 l0 -210 -260 0 -260 0 0 210 0 210 260 0
260 0 0 -210z"/>
<path d="M3480 654 l0 -345 323 3 c351 3 359 5 406 64 18 22 21 41 21 113 0
98 -19 143 -70 165 l-30 12 35 17 c51 24 69 71 63 164 -3 44 -12 82 -22 98
-34 52 -58 55 -406 55 l-320 0 0 -346z m585 151 l0 -70 -212 -3 -213 -2 0 75
0 75 213 -2 212 -3 0 -70z m5 -215 c5 -8 10 -38 10 -67 0 -83 1 -83 -236 -83
l-204 0 0 86 0 85 210 -3 c174 -2 212 -6 220 -18z"/>
<path d="M4641 662 c-105 -187 -191 -342 -191 -346 0 -3 36 -6 79 -6 l79 0 39
75 38 75 217 0 216 0 41 -75 42 -75 89 0 c50 0 90 2 90 4 0 3 -87 157 -194
343 l-195 338 -79 3 -79 3 -192 -339z m337 61 l70 -133 -145 0 -144 0 50 93
c81 149 96 176 97 174 1 -1 34 -62 72 -134z"/>
<path d="M5640 655 l0 -345 335 0 335 0 0 70 0 70 -255 0 -255 0 0 275 0 275
-80 0 -80 0 0 -345z"/>
</g>
</svg>
